# xmcd CD database file
#
# Track frame offsets:
#	150
#	39157
#	75916
#	114563
#	140860
#	171483
#	202039
#	247050
#	266237
#	307674
#
# Disc length: 4268 seconds
#
# Revision: 1
# Processed by: cddbd v1.5.2PL0 Copyright (c) Steve Scherf et al.
# Submitted via: CDex 1.70
#
DISCID=8a10aa0a
DTITLE=Leszek Mozder - January
DYEAR=1900
DGENRE=Jazz
TTITLE0=the first touch
TTITLE1=Vignette
TTITLE2=cinema paradiso
TTITLE3=diamonds and pearls
TTITLE4=balladyna
TTITLE5=king korn
TTITLE6=the cat
TTITLE7=january
TTITLE8=the young an cinema
TTITLE9=new york 2007
EXTD=
EXTT0=
EXTT1=
EXTT2=
EXTT3=
EXTT4=
EXTT5=
EXTT6=
EXTT7=
EXTT8=
EXTT9=
PLAYORDER=
